{
  "accessors": [
    {
      "bufferView": 2,
      "componentType": 5126,
      "count": 19438,
      "max": [
        6.9470648765563965,
        10.807656288146973,
        5.2330751419067383
      ],
      "min": [
        -10.779934883117676,
        -11.122854232788086,
        -4.0760879516601562
      ],
      "type": "VEC3"
    },
    {
      "bufferView": 2,
      "byteOffset": 233256,
      "componentType": 5126,
      "count": 19438,
      "max": [
        0.99927628040313721,
        0.99739187955856323,
        0.99998897314071655
      ],
      "min": [
        -0.99846392869949341,
        -0.99980098009109497,
        -0.99834907054901123
      ],
      "type": "VEC3"
    },
    {
      "bufferView": 3,
      "componentType": 5126,
      "count": 19438,
      "max": [
        0.99999666213989258,
        0.99980229139328003,
        0.99830728769302368,
        1
      ],
      "min": [
        -0.99986428022384644,
        -0.99959981441497803,
        -0.99939501285552979,
        -1
      ],
      "type": "VEC4"
    },
    {
      "bufferView": 3,
      "byteOffset": 311008,
      "componentType": 5126,
      "count": 19438,
      "max": [
        0,
        0,
        0,
        0
      ],
      "min": [
        0,
        0,
        0,
        0
      ],
      "type": "VEC4"
    },
    {
      "bufferView": 1,
      "componentType": 5126,
      "count": 19438,
      "max": [
        0.99799996614456177,
        0.99274212121963501
      ],
      "min": [
        0.0020000000949949026,
        0.0020000000949949026
      ],
      "type": "VEC2"
    },
    {
      "bufferView": 0,
      "componentType": 5125,
      "count": 104907,
      "max": [
        19437
      ],
      "min": [
        0
      ],
      "type": "SCALAR"
    }
  ],
  "asset": {
    "extras": {
      "author": "3dhdscan (https://sketchfab.com/3dhdscan)",
      "license": "CC-BY-4.0 (http://creativecommons.org/licenses/by/4.0/)",
      "source": "https://sketchfab.com/models/70b586d54a1e46ab9398f25369a39df3",
      "title": "Gray Big Rock"
    },
    "generator": "Sketchfab-3.19.3",
    "version": "2.0"
  },
  "bufferViews": [
    {
      "buffer": 0,
      "byteLength": 419628,
      "byteOffset": 0,
      "name": "floatBufferViews",
      "target": 34963
    },
    {
      "buffer": 0,
      "byteLength": 155504,
      "byteOffset": 419628,
      "byteStride": 8,
      "name": "floatBufferViews",
      "target": 34962
    },
    {
      "buffer": 0,
      "byteLength": 466512,
      "byteOffset": 575132,
      "byteStride": 12,
      "name": "floatBufferViews",
      "target": 34962
    },
    {
      "buffer": 0,
      "byteLength": 622016,
      "byteOffset": 1041644,
      "byteStride": 16,
      "name": "floatBufferViews",
      "target": 34962
    }
  ],
  "buffers": [
    {
      "byteLength": 1663660,
      "uri": "scene.bin"
    }
  ],
  "images": [
    {
      "uri": "textures/sutr_tmave_sedy_metallicRoughness.png"
    },
    {
      "uri": "textures/sutr_tmave_sedy_normal.jpeg"
    },
    {
      "uri": "textures/sutr_tmave_sedy_baseColor.jpeg"
    }
  ],
  "materials": [
    {
      "doubleSided": true,
      "emissiveFactor": [
        0,
        0,
        0
      ],
      "name": "sutr_tmave_sedy",
      "normalTexture": {
        "index": 1,
        "scale": 1,
        "texCoord": 0
      },
      "occlusionTexture": {
        "index": 0,
        "strength": 1,
        "texCoord": 0
      },
      "pbrMetallicRoughness": {
        "baseColorFactor": [
          1,
          1,
          1,
          1
        ],
        "baseColorTexture": {
          "index": 2,
          "texCoord": 0
        },
        "metallicFactor": 0,
        "roughnessFactor": 0.71169969509999997
      }
    }
  ],
  "meshes": [
    {
      "name": "sutr_tmave_sedy_sutr_tmave_sedy_0",
      "primitives": [
        {
          "attributes": {
            "COLOR_0": 3,
            "NORMAL": 1,
            "POSITION": 0,
            "TANGENT": 2,
            "TEXCOORD_0": 4
          },
          "indices": 5,
          "material": 0,
          "mode": 4
        }
      ]
    }
  ],
  "nodes": [
    {
      "children": [
        1
      ],
      "name": "RootNode (gltf orientation matrix)",
      "rotation": [
        -0.70710678118654746,
        -0,
        -0,
        0.70710678118654757
      ]
    },
    {
      "children": [
        2
      ],
      "matrix": [
        0,
        -1,
        0,
        0,
        -1,
        0,
        0,
        0,
        0,
        0,
        -1,
        0,
        -0.12425840646028519,
        -0.12425840646028519,
        -10.127627372741699,
        1
      ],
      "name": "RootNode (model correction matrix)"
    },
    {
      "children": [
        3
      ],
      "matrix": [
        1,
        0,
        0,
        0,
        0,
        -1,
        0,
        0,
        0,
        0,
        -1,
        0,
        0,
        0,
        0,
        1
      ],
      "name": "sutr_tmave_sedy.FBX"
    },
    {
      "children": [
        4
      ],
      "name": "RootNode"
    },
    {
      "children": [
        5
      ],
      "matrix": [
        1,
        0,
        0,
        0,
        0,
        1,
        0,
        0,
        0,
        0,
        1,
        0,
        1.5424413681030273,
        -0.092062950134277344,
        4.4853072166442871,
        1
      ],
      "name": "sutr_tmave_sedy"
    },
    {
      "mesh": 0,
      "name": "sutr_tmave_sedy_sutr_tmave_sedy_0"
    }
  ],
  "samplers": [
    {
      "magFilter": 9729,
      "minFilter": 9987,
      "wrapS": 10497,
      "wrapT": 10497
    }
  ],
  "scene": 0,
  "scenes": [
    {
      "name": "OSG_Scene",
      "nodes": [
        0
      ]
    }
  ],
  "textures": [
    {
      "sampler": 0,
      "source": 0
    },
    {
      "sampler": 0,
      "source": 1
    },
    {
      "sampler": 0,
      "source": 2
    }
  ]
}

